<svg height="24" width="24" xmlns="http://www.w3.org/2000/svg" xmlns:xlink="http://www.w3.org/1999/xlink"><linearGradient id="a" gradientUnits="userSpaceOnUse" x1="16.5" x2="12.5" y1="22.5" y2="16.5"><stop offset="0" stop-color="#edd400"/><stop offset="1" stop-color="#fff17a"/></linearGradient><g transform="translate(0 -8)"><text font-family="Georgia" letter-spacing="0" transform="translate(0 8)" word-spacing="0" x="11.26257" xml:space="preserve" y="17.329609"><tspan font-size="8" x="11.26257" y="17.329609"></tspan></text><path d="m.5 17.5 4-5h16v10h-16z" fill="url(#a)" fill-rule="evenodd" stroke="#c4a000" stroke-linecap="round" stroke-linejoin="round"/><text fill="#2e3436" font-family="FreeSans" font-weight="bold" letter-spacing="0" word-spacing="0" x="4.187468" y="20.292719"><tspan font-size="8" x="4.187468" y="20.292719">abc</tspan></text></g><g><rect fill="#3c5a6e" height="11" rx="2.01" width="11" x="13" y="13"/><path d="m14 19 9-.01v-2c0-2.99-1-2.99-4.5-2.99s-4.5 0-4.5 3z" fill="#fcffff" fill-rule="evenodd" opacity=".3"/><g fill="none" stroke="#fff" stroke-linecap="round" stroke-linejoin="round"><path d="m21 16.5 1.5 1.99-1.5 1.99"/><path d="m17.7 17v-1.25h-2.5v5.5h2.5v-1" stroke-width="1.5"/><path d="m17 18.5h4.39"/></g></g></svg>